Normalized EMG Linear Envelopes
nRows=165
nColumns=4

endheader
time	 med_gas_r	  soleus_r	 tib_ant_r	
1.93738	  0.040761	  0.068570	  0.024708	
1.99987	  0.042623	  0.068366	  0.024927	
2.06237	  0.043422	  0.067900	  0.024986	
2.12486	  0.043267	  0.067532	  0.025042	
2.18736	  0.042926	  0.068115	  0.025332	
2.24986	  0.042662	  0.070293	  0.025740	
2.31235	  0.042398	  0.073581	  0.025983	
2.37485	  0.042347	  0.076392	  0.026096	
2.43734	  0.042580	  0.077566	  0.026339	
2.49984	  0.042730	  0.077152	  0.026707	
2.56234	  0.042768	  0.075550	  0.026895	
2.62483	  0.043181	  0.073395	  0.026725	
2.68733	  0.044081	  0.071708	  0.026317	
2.74982	  0.044948	  0.070695	  0.025846	
2.81232	  0.045411	  0.069713	  0.025479	
2.87482	  0.045583	  0.068775	  0.025500	
2.93731	  0.045531	  0.068341	  0.026077	
2.99981	  0.044997	  0.068128	  0.026912	
3.0623	  0.043904	  0.067653	  0.027452	
3.1248	  0.042773	  0.067542	  0.027494	
3.1873	  0.042389	  0.069146	  0.027378	
3.24979	  0.043033	  0.072461	  0.027430	
3.31229	  0.044173	  0.075328	  0.027567	
3.37478	  0.044997	  0.075587	  0.027679	
3.43728	  0.045036	  0.073312	  0.027900	
3.49978	  0.044284	  0.070213	  0.028204	
3.56227	  0.043141	  0.067815	  0.028251	
3.62477	  0.042162	  0.066729	  0.027836	
3.68726	  0.041762	  0.066890	  0.027179	
3.74976	  0.042179	  0.068114	  0.026744	
3.81226	  0.043359	  0.070253	  0.026811	
3.87475	  0.044747	  0.072564	  0.027142	
3.93725	  0.045536	  0.073806	  0.027077	
3.99974	  0.045303	  0.073816	  0.026168	
4.06224	  0.044326	  0.073847	  0.024780	
4.12474	  0.043218	  0.074415	  0.023777	
4.18723	  0.042449	  0.074537	  0.023606	
4.24973	  0.042223	  0.074135	  0.024047	
4.31222	  0.042463	  0.074792	  0.024667	
4.37472	  0.042885	  0.076918	  0.025178	
4.43722	  0.043034	  0.078416	  0.025465	
4.49971	  0.042076	  0.077005	  0.025451	
4.56221	  0.039113	  0.072512	  0.025145	
4.6247	  0.034302	  0.066877	  0.024771	
4.6872	  0.029867	  0.063435	  0.024524	
4.7497	  0.031583	  0.067158	  0.024452	
4.81219	  0.050218	  0.084295	  0.024899	
4.87469	  0.098394	  0.119500	  0.026836	
4.93718	  0.181236	  0.171506	  0.031500	
4.99968	  0.285558	  0.229967	  0.039675	
5.06218	  0.379326	  0.280697	  0.050935	
5.12467	  0.434589	  0.320935	  0.063273	
5.18717	  0.455154	  0.361926	  0.074388	
5.24966	  0.468554	  0.407504	  0.083593	
5.31216	  0.492582	  0.443240	  0.091084	
5.37466	  0.520720	  0.455690	  0.096195	
5.43715	  0.532665	  0.446284	  0.098277	
5.49965	  0.515613	  0.420270	  0.097895	
5.56214	  0.479456	  0.380947	  0.096129	
5.62464	  0.445202	  0.339704	  0.093806	
5.68714	  0.423393	  0.313185	  0.091352	
5.74963	  0.414382	  0.306933	  0.089089	
5.81213	  0.419791	  0.316191	  0.087737	
5.87462	  0.440716	  0.340062	  0.087679	
5.93712	  0.468925	  0.378745	  0.088085	
5.99962	  0.491161	  0.421289	  0.088203	
6.06211	  0.500724	  0.453297	  0.088635	
6.12461	  0.499783	  0.471152	  0.089936	
6.1871	  0.496971	  0.476275	  0.091036	
6.2496	  0.501855	  0.467708	  0.090644	
6.3121	  0.513950	  0.449499	  0.089683	
6.37459	  0.521526	  0.432419	  0.090464	
6.43709	  0.516061	  0.423130	  0.093434	
6.49958	  0.503749	  0.419461	  0.096576	
6.56208	  0.498729	  0.416640	  0.098007	
6.62458	  0.508126	  0.413793	  0.097679	
6.68707	  0.526332	  0.415636	  0.096711	
6.74957	  0.540519	  0.427581	  0.096102	
6.81206	  0.543524	  0.447152	  0.096194	
6.87456	  0.540576	  0.463288	  0.096819	
6.93706	  0.538219	  0.465107	  0.097390	
6.99955	  0.534943	  0.449452	  0.097113	
7.06205	  0.524969	  0.424254	  0.095809	
7.12454	  0.503001	  0.407229	  0.093946	
7.18704	  0.471923	  0.413640	  0.091587	
7.24954	  0.446282	  0.439294	  0.088282	
7.31203	  0.439070	  0.460295	  0.084075	
7.37453	  0.451498	  0.456456	  0.079975	
7.43702	  0.475863	  0.431842	  0.077535	
7.49952	  0.501131	  0.406739	  0.077907	
7.56202	  0.521204	  0.395847	  0.080918	
7.62451	  0.537400	  0.400286	  0.084945	
7.68701	  0.549380	  0.414864	  0.087674	
7.7495	  0.552300	  0.435863	  0.087605	
7.812	  0.545215	  0.460571	  0.085589	
7.8745	  0.534473	  0.483453	  0.084224	
7.93699	  0.529658	  0.498151	  0.085137	
7.99949	  0.540074	  0.504158	  0.087479	
8.06198	  0.569871	  0.507232	  0.089133	
8.12448	  0.611343	  0.510271	  0.088863	
8.18698	  0.643940	  0.508565	  0.087306	
8.24947	  0.646566	  0.498111	  0.086021	
8.31197	  0.616456	  0.485386	  0.085787	
8.37446	  0.571236	  0.484961	  0.086235	
8.43696	  0.530634	  0.503196	  0.086815	
8.49946	  0.503365	  0.525304	  0.087385	
8.56195	  0.490407	  0.528775	  0.087956	
8.62445	  0.489891	  0.509858	  0.088336	
8.68694	  0.496644	  0.485851	  0.088070	
8.74944	  0.505424	  0.473091	  0.086772	
8.81194	  0.516199	  0.472828	  0.084736	
8.87443	  0.530648	  0.478203	  0.082818	
8.93693	  0.544749	  0.486513	  0.081306	
8.99942	  0.551618	  0.498698	  0.079955	
9.06192	  0.552164	  0.512231	  0.079140	
9.12442	  0.554708	  0.524366	  0.079329	
9.18691	  0.561208	  0.537757	  0.080211	
9.24941	  0.563826	  0.554263	  0.081714	
9.3119	  0.557884	  0.567985	  0.084108	
9.3744	  0.546865	  0.570158	  0.086161	
9.4369	  0.533100	  0.557446	  0.085336	
9.49939	  0.514136	  0.532577	  0.080878	
9.56189	  0.490040	  0.500111	  0.075161	
9.62438	  0.469036	  0.463760	  0.071041	
9.68688	  0.463453	  0.427228	  0.068928	
9.74938	  0.475305	  0.397137	  0.067533	
9.81187	  0.487854	  0.382786	  0.066570	
9.87437	  0.482004	  0.389330	  0.066973	
9.93686	  0.455948	  0.409446	  0.068861	
9.99936	  0.422347	  0.425748	  0.070940	
10.0619	  0.397041	  0.426251	  0.071870	
10.1244	  0.389962	  0.413342	  0.071459	
10.1868	  0.397706	  0.395301	  0.070778	
10.2493	  0.407143	  0.378073	  0.070963	
10.3118	  0.407686	  0.366969	  0.071493	
10.3743	  0.398518	  0.366246	  0.070851	
10.4368	  0.385978	  0.375030	  0.069076	
10.4993	  0.376014	  0.386273	  0.067885	
10.5618	  0.370442	  0.389498	  0.068390	
10.6243	  0.369943	  0.380217	  0.070169	
10.6868	  0.376567	  0.366692	  0.072335	
10.7493	  0.391053	  0.360435	  0.074527	
10.8118	  0.410399	  0.364454	  0.076495	
10.8743	  0.428361	  0.373578	  0.077036	
10.9368	  0.435158	  0.379000	  0.074434	
10.9993	  0.420251	  0.371138	  0.068341	
11.0618	  0.382361	  0.342535	  0.060557	
11.1243	  0.334061	  0.293604	  0.053916	
11.1868	  0.291881	  0.237100	  0.050756	
11.2493	  0.264310	  0.189006	  0.051756	
11.3118	  0.249760	  0.154317	  0.055454	
11.3743	  0.242163	  0.129510	  0.059339	
11.4368	  0.235565	  0.112672	  0.061811	
11.4993	  0.225372	  0.102810	  0.062801	
11.5618	  0.211337	  0.096712	  0.062831	
11.6243	  0.199001	  0.091958	  0.062573	
11.6868	  0.193667	  0.088706	  0.063140	
11.7492	  0.194125	  0.087306	  0.064818	
11.8117	  0.194927	  0.086680	  0.065662	
11.8742	  0.194032	  0.085495	  0.063631	
11.9367	  0.193524	  0.083333	  0.059104	
11.9992	  0.191808	  0.080100	  0.053796	
12.0617	  0.183206	  0.076096	  0.049626	
12.1242	  0.166521	  0.072643	  0.048706	
12.1867	  0.145908	  0.070478	  0.051139	
